<?xml version="1.0" encoding="UTF-8"?>
<!DOCTYPE svg PUBLIC "-//W3C//DTD SVG 1.1//EN" "http://www.w3.org/Graphics/SVG/1.1/DTD/svg11.dtd">
<!-- Creator: CorelDRAW X8 -->
<svg xmlns="http://www.w3.org/2000/svg" xml:space="preserve" width="1800px" height="1800px" version="1.1" style="shape-rendering:geometricPrecision; text-rendering:geometricPrecision; image-rendering:optimizeQuality; fill-rule:evenodd; clip-rule:evenodd"
viewBox="0 0 1800 1800"
 xmlns:xlink="http://www.w3.org/1999/xlink">
 <defs>
  <style type="text/css">
   <![CDATA[
    .fil0 {fill:#F9FAF9}
   ]]>
  </style>
 </defs>
 <g id="Layer_x0020_1">
  <metadata id="CorelCorpID_0Corel-Layer"/>
  <path class="fil0" d="M1294 586c-20,11 -71,57 -96,75l-343 274c-100,76 -223,180 -327,262 -23,17 -96,80 -113,87 6,21 33,50 48,64l164 -132c84,-72 212,-165 301,-241 12,-10 15,-11 28,-22l167 -134c36,-29 71,-56 109,-86l111 -88c1,77 -40,251 -16,277 23,26 60,12 66,-24 10,-59 15,-127 21,-187 25,-225 51,-188 -175,-213 -41,-5 -159,-23 -191,-20 -28,3 -47,34 -27,62 16,21 146,27 179,31l70 7c1,1 11,2 11,2l13 6z"/>
 </g>
</svg>
